<?xml version="1.0" encoding="UTF-8"?>
<svg id="Layer_2" data-name="Layer 2" xmlns="http://www.w3.org/2000/svg" viewBox="0 0 286.4 91.18">
  <defs>
    <style>
      .cls-1 {
        fill: gold;
        stroke-width: 3px;
      }

      .cls-1, .cls-2, .cls-3 {
        stroke: #fff;
        stroke-miterlimit: 10;
      }

      .cls-2 {
        stroke-width: 1.5px;
      }

      .cls-2, .cls-4, .cls-3 {
        fill: #fff;
      }

      .cls-4 {
        stroke-width: 0px;
      }
    </style>
  </defs>
  <g id="Layer_1-2" data-name="Layer 1">
    <g>
      <path class="cls-4" d="M81.36,69.59c-1.57,0-2.93-.38-4.08-1.14-1.16-.76-1.99-1.78-2.52-3.07-.52-1.29-.63-2.73-.34-4.32.32-1.59.99-3.03,2.01-4.32,1.02-1.29,2.25-2.32,3.69-3.09,1.44-.77,2.96-1.16,4.55-1.16s2.96.39,4.1,1.16c1.14.77,1.98,1.8,2.5,3.09.52,1.29.62,2.73.3,4.32-.3,1.59-.96,3.03-1.99,4.32-1.03,1.29-2.27,2.32-3.71,3.07-1.44.76-2.94,1.14-4.51,1.14ZM81.84,66.98c1.09,0,2.14-.27,3.15-.8,1.01-.53,1.87-1.25,2.59-2.14.72-.89,1.18-1.89,1.38-2.98.22-1.12.16-2.12-.2-3.02-.36-.89-.94-1.61-1.73-2.14-.8-.53-1.75-.8-2.87-.8s-2.14.27-3.15.8c-1.01.53-1.86,1.25-2.57,2.14s-1.17,1.9-1.4,3.02c-.2,1.09-.12,2.09.24,2.98.36.89.94,1.61,1.73,2.14.79.53,1.74.8,2.83.8Z"/>
      <path class="cls-4" d="M94.25,69.33l5.44-27.95h2.61l-5.44,27.95h-2.61Z"/>
      <path class="cls-4" d="M109.05,69.7c-1.54,0-2.83-.4-3.88-1.21-1.04-.81-1.78-1.86-2.22-3.17-.44-1.3-.5-2.7-.21-4.19.22-1.12.63-2.19,1.21-3.22.58-1.03,1.31-1.95,2.18-2.76.87-.81,1.84-1.44,2.91-1.9,1.07-.46,2.17-.69,3.32-.69,1.34,0,2.49.27,3.45.82.96.55,1.67,1.33,2.14,2.35l2.8-14.35h2.61l-5.44,27.95h-2.61l.56-2.8c-.6.62-1.26,1.17-1.98,1.66-.72.48-1.49.86-2.29,1.12-.81.26-1.66.39-2.55.39ZM109.98,67.09c1.12,0,2.16-.28,3.13-.84s1.79-1.29,2.48-2.2c.68-.91,1.12-1.88,1.32-2.93.2-1.07.14-2.05-.19-2.94-.32-.89-.86-1.62-1.62-2.18-.76-.56-1.7-.84-2.81-.84s-2.17.28-3.15.84c-.98.56-1.81,1.29-2.48,2.18s-1.11,1.88-1.3,2.94c-.2,1.04-.14,2.02.17,2.93.31.91.85,1.64,1.62,2.2.77.56,1.71.84,2.83.84Z"/>
      <path class="cls-4" d="M129.85,69.59c-1.64,0-3.08-.35-4.31-1.06-1.23-.71-2.12-1.7-2.68-2.98-.56-1.28-.68-2.78-.35-4.49.32-1.59.99-3.03,2.01-4.32,1.02-1.29,2.25-2.32,3.69-3.09,1.44-.77,2.96-1.16,4.55-1.16s2.88.39,4.03,1.16c1.14.77,1.99,1.79,2.53,3.06.55,1.27.67,2.67.37,4.21l-.22,1.04h-15.58l.56-2.42h12.75c-.02-.84-.25-1.6-.69-2.25-.43-.66-1.02-1.19-1.75-1.58-.73-.4-1.57-.6-2.52-.6-1.17,0-2.25.27-3.24.82-.99.55-1.83,1.29-2.5,2.22-.67.93-1.12,1.98-1.34,3.15-.22,1.14-.14,2.14.26,3,.4.86,1,1.52,1.81,1.99.81.47,1.71.71,2.7.71.77,0,1.5-.09,2.2-.26.7-.17,1.36-.43,1.99-.78.63-.35,1.22-.79,1.77-1.34l1.64,1.64c-.7.7-1.48,1.3-2.35,1.81-.87.51-1.76.89-2.68,1.16-.92.26-1.8.39-2.65.39Z"/>
      <path class="cls-4" d="M143.27,69.33l3.21-16.4h2.61l-.56,2.83c.7-.89,1.55-1.65,2.55-2.25,1.01-.61,2.12-.91,3.34-.91,1.29,0,2.34.26,3.13.76.79.51,1.34,1.24,1.62,2.2.29.96.29,2.13.02,3.52l-1.98,10.25h-2.61l1.98-10.25c.15-.65.19-1.27.11-1.86-.07-.6-.3-1.08-.69-1.45-.39-.37-.98-.56-1.77-.56-1.34,0-2.49.32-3.43.97-.94.65-1.71,1.52-2.29,2.63-.58,1.11-1.01,2.33-1.29,3.67l-1.34,6.86h-2.61Z"/>
      <g>
        <path class="cls-2" d="M162.24,68.33l4.92-25.34h15.06l-.45,2.42h-12.45l-1.75,9.02h12.08l-.48,2.46h-12.08l-2.24,11.44h-2.61Z"/>
        <path class="cls-2" d="M181.02,68.33l3.21-16.4h2.61l-3.21,16.4h-2.61ZM186.05,49.09c-.47,0-.84-.16-1.1-.48-.26-.32-.34-.72-.24-1.19.1-.45.34-.83.73-1.16.38-.32.8-.48,1.25-.48.47,0,.84.16,1.1.48.26.32.34.71.24,1.16-.05.3-.18.58-.39.84-.21.26-.45.47-.73.61-.27.15-.56.22-.86.22Z"/>
        <path class="cls-2" d="M194.44,77.64c-1.04,0-1.97-.19-2.78-.56-.81-.37-1.49-.88-2.05-1.53-.56-.65-.97-1.38-1.23-2.2-.26-.82-.38-1.69-.35-2.61h2.61c.05,1.29.5,2.33,1.34,3.11.84.78,1.84,1.17,2.98,1.17s2.12-.27,3.09-.8c.97-.53,1.8-1.25,2.5-2.14.7-.89,1.14-1.88,1.34-2.94l.67-3.58c-.45.5-1.01.99-1.68,1.47s-1.43.88-2.27,1.19-1.78.47-2.8.47c-1.54,0-2.84-.4-3.9-1.19-1.06-.79-1.8-1.84-2.24-3.15-.43-1.3-.5-2.71-.2-4.23.3-1.52.91-2.93,1.84-4.23.93-1.3,2.08-2.35,3.45-3.15,1.37-.79,2.82-1.19,4.36-1.19,1.02,0,1.9.17,2.65.5.75.34,1.36.75,1.85,1.23.48.48.84.95,1.06,1.4l.56-2.76h2.61l-3.35,17.22c-.32,1.57-.98,2.99-1.98,4.27-.99,1.28-2.2,2.3-3.62,3.07-1.42.77-2.91,1.16-4.47,1.16ZM196.71,66.09c1.12,0,2.16-.28,3.13-.84s1.8-1.29,2.48-2.2c.68-.91,1.12-1.88,1.32-2.93.2-1.07.14-2.05-.19-2.94-.32-.89-.86-1.62-1.62-2.18-.76-.56-1.7-.84-2.81-.84s-2.09.27-3.07.82c-.98.55-1.81,1.27-2.5,2.16-.68.89-1.14,1.89-1.36,2.98-.2,1.07-.13,2.06.2,2.96.34.91.89,1.63,1.66,2.18.77.55,1.69.82,2.76.82Z"/>
        <path class="cls-2" d="M209.87,68.33l5.44-27.95h2.61l-2.8,14.39c.7-.89,1.53-1.65,2.5-2.25.97-.61,2.06-.91,3.28-.91,1.37,0,2.45.27,3.26.8.81.53,1.35,1.29,1.62,2.25.27.97.27,2.11,0,3.43l-1.98,10.25h-2.61l1.98-10.25c.15-.65.19-1.27.11-1.86-.07-.6-.3-1.08-.69-1.45-.39-.37-.98-.56-1.77-.56-1.34,0-2.48.29-3.41.86-.93.57-1.69,1.4-2.27,2.48-.58,1.08-1.02,2.39-1.32,3.93l-1.34,6.86h-2.61Z"/>
        <path class="cls-2" d="M231.08,68.33l2.72-13.98h-4.1l.48-2.42h4.1l1.23-6.37h2.61l-1.23,6.37h4.06l-.48,2.42h-4.06l-2.72,13.98h-2.61Z"/>
        <path class="cls-2" d="M246.88,68.59c-1.64,0-3.08-.35-4.31-1.06-1.23-.71-2.12-1.7-2.68-2.98-.56-1.28-.68-2.78-.35-4.49.32-1.59.99-3.03,2.01-4.32,1.02-1.29,2.25-2.32,3.69-3.09,1.44-.77,2.96-1.16,4.55-1.16s2.88.39,4.03,1.16c1.14.77,1.99,1.79,2.53,3.06.55,1.27.67,2.67.37,4.21l-.22,1.04h-15.58l.56-2.42h12.75c-.02-.84-.25-1.6-.69-2.25-.43-.66-1.02-1.19-1.75-1.58-.73-.4-1.57-.6-2.52-.6-1.17,0-2.25.27-3.24.82-.99.55-1.83,1.29-2.5,2.22-.67.93-1.12,1.98-1.34,3.15-.22,1.14-.14,2.14.26,3,.4.86,1,1.52,1.81,1.99.81.47,1.71.71,2.7.71.77,0,1.5-.09,2.2-.26.7-.17,1.36-.43,1.99-.78.63-.35,1.22-.79,1.77-1.34l1.64,1.64c-.7.7-1.48,1.3-2.35,1.81-.87.51-1.76.89-2.68,1.16-.92.26-1.8.39-2.65.39Z"/>
        <path class="cls-2" d="M260.3,68.33l3.21-16.4h2.61l-.63,3.21c.5-.92,1-1.63,1.51-2.14.51-.51,1.04-.87,1.6-1.08.56-.21,1.14-.32,1.73-.32.27,0,.55.03.82.07.27.05.53.14.78.26l-.67,3.39c-.25-.27-.52-.48-.82-.61-.3-.14-.62-.2-.97-.2-.8,0-1.54.28-2.24.84-.7.56-1.28,1.27-1.75,2.12-.47.86-.8,1.75-.97,2.66l-1.6,8.2h-2.61Z"/>
        <path class="cls-2" d="M277.29,68.81c-1.27,0-2.32-.19-3.15-.56-.83-.37-1.45-.94-1.84-1.7-.4-.76-.58-1.7-.56-2.81h2.76c.02.55.12,1.01.3,1.38.17.37.41.67.71.89.3.22.65.39,1.04.48.4.1.83.15,1.3.15,1.22,0,2.17-.22,2.85-.67.68-.45,1.11-1.12,1.29-2.01.1-.52-.03-.98-.39-1.38-.36-.4-.94-.73-1.73-1.01-.35-.12-.78-.26-1.3-.41-.52-.15-1.06-.31-1.6-.48-.55-.17-1.03-.36-1.45-.56-.7-.37-1.22-.86-1.57-1.45-.35-.6-.45-1.32-.3-2.16.22-1.12.68-2.04,1.36-2.78.68-.73,1.5-1.28,2.46-1.64.96-.36,1.94-.54,2.96-.54,1.54,0,2.79.32,3.75.95s1.45,1.8,1.47,3.48h-2.8c-.05-.57-.19-1.02-.43-1.36-.24-.34-.56-.57-.97-.71-.41-.14-.91-.2-1.51-.2-.75,0-1.46.16-2.14.48-.68.32-1.1.88-1.25,1.68-.15.8.02,1.36.5,1.7.48.34,1,.6,1.55.8.27.07.68.18,1.21.32.53.14,1.1.3,1.7.48.6.19,1.11.39,1.53.61.75.4,1.27.92,1.58,1.57.31.65.37,1.4.17,2.27-.22,1.22-.71,2.21-1.45,2.96-.75.76-1.64,1.32-2.68,1.68-1.04.36-2.16.54-3.35.54Z"/>
      </g>
      <g>
        <polygon class="cls-1" points="47.94 3.62 61.03 32.39 92.43 35.95 69.12 57.29 75.44 88.25 47.94 72.67 20.44 88.25 26.76 57.29 3.44 35.95 34.85 32.39 47.94 3.62"/>
        <path class="cls-3" d="M47.94,64.35c-1.84,0-3.56-.34-5.17-1.03-1.61-.69-3.03-1.65-4.27-2.87-1.24-1.23-2.21-2.66-2.91-4.29-.7-1.63-1.05-3.37-1.05-5.21s.35-3.53,1.05-5.15c.7-1.62,1.66-3.05,2.87-4.27,1.21-1.23,2.62-2.2,4.23-2.91,1.61-.71,3.33-1.07,5.17-1.07,1.99,0,3.85.4,5.57,1.19,1.72.79,3.22,1.88,4.5,3.28,1.28,1.39,2.21,3.01,2.8,4.85h-5.17c-.69-1.63-1.73-2.85-3.12-3.64-1.39-.79-2.89-1.19-4.5-1.19-1.17,0-2.29.23-3.33.69-1.05.46-1.97,1.1-2.76,1.93-.79.83-1.41,1.79-1.86,2.87-.45,1.09-.67,2.24-.67,3.47s.22,2.38.67,3.47c.45,1.09,1.07,2.05,1.86,2.89.79.84,1.71,1.49,2.76,1.95,1.05.46,2.16.69,3.33.69,1.1,0,2.19-.18,3.28-.54,1.09-.36,2.07-.96,2.95-1.8s1.56-1.94,2.05-3.29h-7.93v-3.68h13.06l-.08,1.11c-.1,1.79-.52,3.44-1.25,4.96-.73,1.52-1.7,2.85-2.93,4-1.23,1.15-2.62,2.04-4.18,2.66-1.56.63-3.22.94-4.98.94Z"/>
      </g>
    </g>
  </g>
</svg>